<?xml version="1.0" standalone="no"?>
<!DOCTYPE svg PUBLIC "-//W3C//DTD SVG 20010904//EN"
 "http://www.w3.org/TR/2001/REC-SVG-20010904/DTD/svg10.dtd">
<svg version="1.0" xmlns="http://www.w3.org/2000/svg"
 width="605.000000pt" height="605.000000pt" viewBox="0 0 605.000000 605.000000"
 preserveAspectRatio="xMidYMid meet">
<metadata>
Created by potrace 1.14, written by Peter Selinger 2001-2017
</metadata>
<g transform="translate(0.000000,605.000000) scale(0.100000,-0.100000)"
fill="#000000" stroke="none">
<path d="M4435 3681 c-63 -16 -93 -39 -122 -98 -27 -56 -28 -62 -28 -219 l0
-161 35 -69 c70 -136 193 -170 273 -75 15 18 27 39 27 47 0 8 6 25 14 37 18
29 28 113 27 247 0 89 -4 118 -22 159 -23 56 -97 131 -128 131 -11 0 -25 2
-33 4 -7 2 -26 1 -43 -3z"/>
<path d="M1605 3661 c-53 -25 -81 -70 -100 -159 -30 -146 -10 -319 49 -407 39
-59 99 -95 158 -95 39 0 103 42 114 75 3 11 15 39 26 63 29 65 37 295 14 375
-18 62 -68 127 -117 153 -38 19 -96 17 -144 -5z"/>
<path d="M2895 2745 c-186 -29 -271 -65 -362 -150 -36 -35 -53 -58 -53 -75 0
-31 20 -88 41 -121 24 -36 108 -78 191 -95 101 -21 539 -31 679 -15 93 11 137
19 261 52 78 20 124 85 116 162 -6 51 -63 136 -111 166 -41 25 -149 56 -261
76 -108 18 -385 19 -501 0z"/>
</g>
</svg>
